<?xml version="1.0" encoding="UTF-8" standalone="no"?>
<!-- Created with Inkscape (http://www.inkscape.org/) -->

<svg
   width="75.402298mm"
   height="75.402298mm"
   viewBox="0 0 75.402298 75.402298"
   version="1.1"
   id="svg1"
   xml:space="preserve"
   inkscape:version="1.4 (86a8ad7, 2024-10-11)"
   sodipodi:docname="favicon.svg"
   xmlns:inkscape="http://www.inkscape.org/namespaces/inkscape"
   xmlns:sodipodi="http://sodipodi.sourceforge.net/DTD/sodipodi-0.dtd"
   xmlns:xlink="http://www.w3.org/1999/xlink"
   xmlns="http://www.w3.org/2000/svg"
   xmlns:svg="http://www.w3.org/2000/svg"><sodipodi:namedview
     id="namedview1"
     pagecolor="#ffffff"
     bordercolor="#000000"
     borderopacity="0.25"
     inkscape:showpageshadow="2"
     inkscape:pageopacity="0.0"
     inkscape:pagecheckerboard="0"
     inkscape:deskcolor="#d1d1d1"
     inkscape:document-units="mm"
     inkscape:zoom="0.73512619"
     inkscape:cx="257.77887"
     inkscape:cy="166.63806"
     inkscape:window-width="1409"
     inkscape:window-height="1211"
     inkscape:window-x="1711"
     inkscape:window-y="1521"
     inkscape:window-maximized="0"
     inkscape:current-layer="layer1" /><defs
     id="defs1"><linearGradient
       id="linearGradient8"
       inkscape:collect="always"><stop
         style="stop-color:#f5cf00;stop-opacity:1;"
         offset="0.37985864"
         id="stop9" /><stop
         style="stop-color:#e4c000;stop-opacity:1;"
         offset="0.78710246"
         id="stop11" /><stop
         style="stop-color:#c7a900;stop-opacity:1;"
         offset="1"
         id="stop10" /></linearGradient><linearGradient
       inkscape:collect="always"
       xlink:href="#linearGradient8"
       id="linearGradient10"
       x1="120.83118"
       y1="116.99364"
       x2="96.04335"
       y2="149.8882"
       gradientUnits="userSpaceOnUse" /></defs><circle
     style="fill:#186918;fill-opacity:1;stroke-width:0.26"
     id="path2"
     cx="37.701149"
     cy="37.701149"
     r="37.701149" /><g
     inkscape:label="Layer 1"
     inkscape:groupmode="layer"
     id="layer1"
     transform="translate(-70.183517,-97.177193)"><path
       style="fill:url(#linearGradient10)"
       d="m 104.08328,164.18531 c -0.24339,-0.0217 -0.96646,-0.13717 -1.60682,-0.25654 -0.64036,-0.11937 -1.58629,-0.36158 -2.10207,-0.53825 -0.515777,-0.17667 -1.354842,-0.50176 -1.864584,-0.72241 -0.509743,-0.22064 -1.389317,-0.67338 -1.954611,-1.00607 -0.565294,-0.3327 -1.418292,-0.89914 -1.895553,-1.25877 -0.47726,-0.35962 -1.27506,-1.07813 -1.77289,-1.59668 -0.497829,-0.51855 -1.211159,-1.35554 -1.585177,-1.85998 -0.374018,-0.50444 -0.943521,-1.36743 -1.265562,-1.91775 -0.322042,-0.55033 -0.745212,-1.36745 -0.940379,-1.81584 -0.195167,-0.44839 -0.473968,-1.21322 -0.619557,-1.69963 -0.145589,-0.48642 -0.347587,-1.46377 -0.448885,-2.1719 -0.117325,-0.82018 -0.184162,-2.01035 -0.184137,-3.27895 2.8e-5,-1.38418 0.05824,-2.32879 0.190898,-3.09778 0.104971,-0.60849 0.363845,-1.6291 0.575276,-2.26802 0.211431,-0.63891 0.606543,-1.60226 0.878027,-2.14075 0.271484,-0.5385 0.707966,-1.31018 0.96996,-1.71485 0.261994,-0.40466 0.877046,-1.23361 1.366782,-1.8421 0.489736,-0.6085 1.265633,-1.46273 1.724216,-1.8983 0.458582,-0.43558 1.199394,-1.0492 1.646248,-1.36362 0.446853,-0.31441 1.210747,-0.78831 1.697542,-1.0531 0.486794,-0.26479 1.275843,-0.63587 1.753442,-0.82463 0.477599,-0.18876 1.343329,-0.4666 1.923844,-0.61743 0.58052,-0.15083 1.65843,-0.35416 2.39537,-0.45184 0.98353,-0.13036 1.76656,-0.15955 2.9441,-0.10973 0.88232,0.0373 1.8158,0.11094 2.07441,0.16359 l 0.4702,0.0957 1.7e-4,-12.6252 c 1.6e-4,-11.79871 0.0128,-12.65045 0.19361,-13.01088 0.10639,-0.21213 0.31791,-0.44788 0.47003,-0.52389 0.15212,-0.076 0.43137,-0.13893 0.62056,-0.13983 0.18919,-9e-4 0.61236,0.13694 0.9404,0.3063 0.32803,0.16936 3.079,1.74189 6.11326,3.49453 3.03426,1.75263 5.79737,3.36498 6.14025,3.58301 0.34287,0.21802 0.9968,0.67038 1.45317,1.00524 0.45637,0.33486 1.17137,0.93632 1.58888,1.33657 0.41752,0.40025 0.97155,1.02645 1.23117,1.39154 0.25963,0.3651 0.57176,0.86296 0.69363,1.10635 0.12186,0.2434 0.35128,0.84083 0.50982,1.32762 0.15853,0.4868 0.3636,1.32723 0.45571,1.86763 0.0921,0.54041 0.16746,1.55067 0.16746,2.24503 0,0.71951 -0.0751,1.62626 -0.17471,2.10833 -0.0961,0.46522 -0.29053,1.15352 -0.43207,1.52956 -0.14154,0.37604 -0.43826,1.05472 -0.65937,1.50818 -0.22112,0.45346 -0.5562,1.01151 -0.74463,1.2401 -0.18842,0.22859 -0.46687,0.46288 -0.61877,0.52063 -0.1519,0.0577 -0.36067,0.0782 -0.46393,0.0454 -0.17415,-0.0553 -0.16917,-0.1576 0.0689,-1.41342 0.14114,-0.7446 0.28898,-1.92658 0.32852,-2.62662 0.055,-0.97365 0.0287,-1.49371 -0.11203,-2.2127 -0.11641,-0.59491 -0.36264,-1.30539 -0.6708,-1.93562 -0.29951,-0.61253 -0.72892,-1.26295 -1.11583,-1.69011 -0.34592,-0.38191 -0.93474,-0.91104 -1.30849,-1.17585 -0.37375,-0.2648 -0.87869,-0.58086 -1.12209,-0.70235 -0.24339,-0.12149 -0.8356,-0.35211 -1.316,-0.5125 -0.48041,-0.16038 -1.97399,-0.51795 -3.31906,-0.7946 -1.34507,-0.27664 -2.82727,-0.59973 -3.29378,-0.71796 -0.4665,-0.11824 -0.87724,-0.21498 -0.91274,-0.21498 -0.0355,0 -0.0645,5.69508 -0.0645,12.65573 v 12.65572 l -0.28707,0.072 c -0.22446,0.0563 -0.38733,-0.009 -0.74678,-0.30058 -0.25285,-0.20494 -0.77237,-0.58333 -1.15449,-0.84086 -0.38212,-0.25753 -1.1538,-0.6896 -1.71484,-0.96016 -0.56104,-0.27056 -1.51794,-0.62334 -2.12643,-0.78396 -0.94747,-0.25009 -1.33673,-0.29251 -2.71056,-0.29532 -1.43192,-0.003 -1.71115,0.0289 -2.59992,0.29685 -0.54765,0.16508 -1.35637,0.46983 -1.797174,0.67722 -0.440801,0.20738 -1.02014,0.52752 -1.287421,0.71141 -0.26728,0.1839 -0.774335,0.59722 -1.126787,0.91851 -0.352453,0.32128 -0.938279,0.98243 -1.301837,1.46922 -0.363557,0.4868 -0.924009,1.43273 -1.245448,2.10207 -0.321439,0.66934 -0.662739,1.52461 -0.758444,1.90059 -0.09571,0.37598 -0.217465,1.22418 -0.270576,1.88489 -0.05541,0.68933 -0.05493,1.65416 0.0011,2.26396 0.05373,0.58447 0.223784,1.50367 0.377903,2.04266 0.154118,0.53899 0.474315,1.38851 0.711548,1.88782 0.237233,0.49931 0.641639,1.2212 0.898681,1.60421 0.257042,0.383 0.855039,1.07719 1.328882,1.54264 0.473842,0.46546 1.280568,1.1251 1.792723,1.46588 0.512155,0.34077 1.2736,0.77485 1.6921,0.9646 0.41851,0.18976 1.23445,0.47109 1.81322,0.62517 0.90093,0.23986 1.29898,0.28128 2.76715,0.28795 1.45788,0.007 1.86404,-0.031 2.71056,-0.25133 0.54764,-0.14252 1.41889,-0.44192 1.93611,-0.66534 0.51722,-0.22342 1.21422,-0.58236 1.54889,-0.79764 0.33467,-0.21529 0.92214,-0.65266 1.30549,-0.97194 0.38336,-0.31928 0.99143,-0.951 1.35128,-1.40383 0.35985,-0.45283 0.82096,-1.10861 1.02469,-1.45728 0.20373,-0.34867 0.55236,-1.05859 0.77473,-1.57759 0.22237,-0.51901 0.50444,-1.36537 0.62683,-1.8808 0.12239,-0.51543 0.23608,-1.31054 0.25265,-1.76691 0.0276,-0.75998 0.0115,-0.83161 -0.19114,-0.85172 -0.1217,-0.0121 -0.66177,-0.0543 -1.20016,-0.0938 -0.74853,-0.0549 -1.02841,-0.12138 -1.18933,-0.28229 -0.11574,-0.11574 -0.21043,-0.33647 -0.21043,-0.49052 0,-0.15404 0.1031,-0.58614 0.22912,-0.96022 0.12602,-0.37408 0.61671,-1.50513 1.09042,-2.51346 0.47372,-1.00832 1.1729,-2.60499 1.55373,-3.54815 0.38084,-0.94317 0.78836,-1.90361 0.9056,-2.13432 0.11724,-0.23071 0.31068,-0.51698 0.42985,-0.63615 0.12915,-0.12915 0.36682,-0.21668 0.58833,-0.21668 0.27714,0 0.50181,0.11457 0.88354,0.45059 0.28155,0.24783 0.8163,0.85771 1.18833,1.35528 0.37203,0.49758 1.56146,2.22962 2.64318,3.84898 1.08172,1.61936 2.02551,3.12234 2.09733,3.33994 0.10733,0.32521 0.10032,0.45414 -0.0394,0.72427 -0.11351,0.21952 -0.32684,0.38497 -0.64249,0.49831 -0.25991,0.0933 -0.80861,0.20138 -1.21935,0.24013 l -0.74678,0.0704 v 0.71469 c 0,0.39307 -0.0531,1.19813 -0.11803,1.78901 -0.0649,0.59088 -0.21908,1.54447 -0.34257,2.11909 -0.12349,0.57462 -0.37489,1.47077 -0.55866,1.99144 -0.18377,0.52066 -0.57335,1.41963 -0.86574,1.9977 -0.29239,0.57807 -0.772,1.40664 -1.06581,1.84126 -0.29381,0.43463 -0.83952,1.16109 -1.2127,1.61435 -0.37318,0.45326 -1.08795,1.18491 -1.58838,1.62589 -0.50043,0.44097 -1.36507,1.10118 -1.92142,1.46712 -0.55635,0.36595 -1.5094,0.90331 -2.1179,1.19414 -0.60849,0.29084 -1.50463,0.65675 -1.99143,0.81315 -0.48679,0.1564 -1.20488,0.36502 -1.59575,0.46359 -0.39087,0.0986 -1.23723,0.24932 -1.8808,0.33501 -0.64356,0.0857 -1.64309,0.14839 -2.22115,0.13934 -0.57807,-0.009 -1.25018,-0.0342 -1.49358,-0.0559 z"
       id="path1" /></g></svg>
